<!--?xml version="1.0" standalone="no"?-->
              <svg id="sw-js-blob-svg" viewBox="0 0 100 100" xmlns="http://www.w3.org/2000/svg" version="1.1">
                    <defs> 
                        <linearGradient id="sw-gradient" x1="0" x2="1" y1="1" y2="0">
                            <stop id="stop1" stop-color="rgba(141, 119, 168, 1)" offset="0%"></stop>
                            <stop id="stop2" stop-color="rgba(209, 192, 236, 1)" offset="100%"></stop>
                        </linearGradient>
                    </defs>
                <path fill="url(#sw-gradient)" d="M23.5,-26.1C31.7,-21.2,40.3,-14.9,42.8,-6.7C45.3,1.5,41.6,11.7,35.7,19.4C29.8,27.1,21.8,32.4,12.8,36.1C3.8,39.8,-6.1,41.9,-14.9,39.4C-23.7,36.9,-31.3,29.7,-34.3,21.3C-37.4,13,-35.8,3.5,-34,-5.9C-32.2,-15.2,-30.1,-24.3,-24.4,-29.7C-18.7,-35.1,-9.4,-36.8,-0.8,-35.8C7.7,-34.7,15.3,-31.1,23.5,-26.1Z" width="100%" height="100%" transform="translate(50 50)" stroke-width="0" style="transition: 0.3s;" stroke="url(#sw-gradient)"></path>
              </svg>